<?xml version="1.0" encoding="UTF-8"?>
<!DOCTYPE svg PUBLIC "-//W3C//DTD SVG 1.1//EN" "http://www.w3.org/Graphics/SVG/1.1/DTD/svg11.dtd">
<!-- Creator: CorelDRAW X6 -->
<svg xmlns="http://www.w3.org/2000/svg" xml:space="preserve" width="11.6944in" height="8.25in" version="1.1" style="shape-rendering:geometricPrecision; text-rendering:geometricPrecision; image-rendering:optimizeQuality; fill-rule:evenodd; clip-rule:evenodd"
viewBox="0 0 11694 8250"
 xmlns:xlink="http://www.w3.org/1999/xlink">
 <defs>
  <style type="text/css">
   <![CDATA[
    .fil1 {fill:#349ED8;fill-rule:nonzero}
    .fil12 {fill:#FEFEFE;fill-rule:nonzero}
    .fil24 {fill:url(#id0)}
    .fil25 {fill:url(#id1)}
    .fil31 {fill:url(#id2)}
    .fil28 {fill:url(#id3)}
    .fil26 {fill:url(#id4)}
    .fil29 {fill:url(#id5)}
    .fil27 {fill:url(#id6)}
    .fil22 {fill:url(#id7)}
    .fil30 {fill:url(#id8)}
    .fil23 {fill:url(#id9)}
    .fil2 {fill:url(#id10)}
    .fil5 {fill:url(#id11)}
    .fil16 {fill:url(#id12)}
    .fil7 {fill:url(#id13)}
    .fil8 {fill:url(#id14)}
    .fil19 {fill:url(#id15)}
    .fil21 {fill:url(#id16)}
    .fil15 {fill:url(#id17)}
    .fil18 {fill:url(#id18)}
    .fil17 {fill:url(#id19)}
    .fil13 {fill:url(#id20)}
    .fil3 {fill:url(#id21)}
    .fil11 {fill:url(#id22)}
    .fil10 {fill:url(#id23)}
    .fil9 {fill:url(#id24)}
    .fil14 {fill:url(#id25)}
    .fil20 {fill:url(#id26)}
    .fil4 {fill:url(#id27)}
    .fil6 {fill:url(#id28)}
    .fil0 {fill:url(#id29)}
   ]]>
  </style>
  <linearGradient id="id0" gradientUnits="userSpaceOnUse" x1="1341.53" y1="4631.81" x2="1507.03" y2="4631.81">
   <stop offset="0" style="stop-color:#1F5CA9"/>
   <stop offset="1" style="stop-color:#4DC8F4"/>
  </linearGradient>
  <linearGradient id="id1" gradientUnits="userSpaceOnUse" xlink:href="#id0" x1="2210.46" y1="2191.19" x2="2549.39" y2="2191.19">
  </linearGradient>
  <linearGradient id="id2" gradientUnits="userSpaceOnUse" xlink:href="#id0" x1="2479.65" y1="5578.28" x2="2796.15" y2="5578.28">
  </linearGradient>
  <linearGradient id="id3" gradientUnits="userSpaceOnUse" xlink:href="#id0" x1="2508.76" y1="4096.71" x2="2751.73" y2="4096.71">
  </linearGradient>
  <linearGradient id="id4" gradientUnits="userSpaceOnUse" xlink:href="#id0" x1="3441.79" y1="3020.94" x2="3850.37" y2="3020.94">
  </linearGradient>
  <linearGradient id="id5" gradientUnits="userSpaceOnUse" xlink:href="#id0" x1="3666.37" y1="4371.85" x2="3907.65" y2="4371.85">
  </linearGradient>
  <linearGradient id="id6" gradientUnits="userSpaceOnUse" xlink:href="#id0" x1="4448.94" y1="4239.94" x2="4748.36" y2="4239.94">
  </linearGradient>
  <linearGradient id="id7" gradientUnits="userSpaceOnUse" xlink:href="#id0" x1="4606.87" y1="3715.87" x2="5040.56" y2="3715.87">
  </linearGradient>
  <linearGradient id="id8" gradientUnits="userSpaceOnUse" xlink:href="#id0" x1="5019.83" y1="4195.97" x2="5354.03" y2="4195.97">
  </linearGradient>
  <linearGradient id="id9" gradientUnits="userSpaceOnUse" xlink:href="#id0" x1="5853.08" y1="3437.25" x2="6216.98" y2="3437.25">
  </linearGradient>
  <linearGradient id="id10" gradientUnits="userSpaceOnUse" x1="-0.00393701" y1="6363.75" x2="5673.65" y2="6363.75">
   <stop offset="0" style="stop-color:#349ED8"/>
   <stop offset="1" style="stop-color:#4DC8F4"/>
  </linearGradient>
  <linearGradient id="id11" gradientUnits="userSpaceOnUse" xlink:href="#id10" x1="3561.47" y1="5405.36" x2="5171.82" y2="5405.36">
  </linearGradient>
  <linearGradient id="id12" gradientUnits="userSpaceOnUse" x1="3609.85" y1="5987.13" x2="6333.65" y2="5987.13">
   <stop offset="0" style="stop-color:#4DC8F4"/>
   <stop offset="1" style="stop-color:#C7EAFB"/>
  </linearGradient>
  <linearGradient id="id13" gradientUnits="userSpaceOnUse" xlink:href="#id12" x1="6372.41" y1="4191.05" x2="7681.08" y2="4191.05">
  </linearGradient>
  <linearGradient id="id14" gradientUnits="userSpaceOnUse" xlink:href="#id12" x1="6959.79" y1="4130.34" x2="8819.46" y2="4130.34">
  </linearGradient>
  <linearGradient id="id15" gradientUnits="userSpaceOnUse" x1="-0.00393701" y1="5844.32" x2="11694.4" y2="5844.32">
   <stop offset="0" style="stop-color:#FEFEFE"/>
   <stop offset="1" style="stop-color:#4DC8F4"/>
  </linearGradient>
  <linearGradient id="id16" gradientUnits="userSpaceOnUse" xlink:href="#id15" x1="3995.53" y1="7385.01" x2="11694.4" y2="7385.01">
  </linearGradient>
  <linearGradient id="id17" gradientUnits="userSpaceOnUse" xlink:href="#id15" x1="5481.37" y1="5043.17" x2="7991.91" y2="5043.17">
  </linearGradient>
  <linearGradient id="id18" gradientUnits="userSpaceOnUse" xlink:href="#id15" x1="8589.3" y1="3980.62" x2="10468.2" y2="3980.62">
  </linearGradient>
  <linearGradient id="id19" gradientUnits="userSpaceOnUse" xlink:href="#id15" x1="9846.25" y1="3960.37" x2="11694.4" y2="3960.37">
  </linearGradient>
  <linearGradient id="id20" gradientUnits="userSpaceOnUse" x1="5425.97" y1="4221.85" x2="11694.4" y2="4221.85">
   <stop offset="0" style="stop-color:#FEFEFE"/>
   <stop offset="1" style="stop-color:#C7EAFB"/>
  </linearGradient>
  <linearGradient id="id21" gradientUnits="userSpaceOnUse" xlink:href="#id20" x1="5808.51" y1="3262.06" x2="11694.4" y2="3262.06">
  </linearGradient>
  <linearGradient id="id22" gradientUnits="userSpaceOnUse" xlink:href="#id15" x1="5411.61" y1="6987.69" x2="3502.05" y2="5250.43">
  </linearGradient>
  <linearGradient id="id23" gradientUnits="userSpaceOnUse" xlink:href="#id15" x1="10389.1" y1="3065.93" x2="9046.33" y2="2011.47">
  </linearGradient>
  <linearGradient id="id24" gradientUnits="userSpaceOnUse" xlink:href="#id10" x1="5248.06" y1="6475.28" x2="2928.43" y2="5282.33">
  </linearGradient>
  <linearGradient id="id25" gradientUnits="userSpaceOnUse" xlink:href="#id15" x1="10468" y1="3448.22" x2="5453.53" y2="5568.89">
  </linearGradient>
  <linearGradient id="id26" gradientUnits="userSpaceOnUse" xlink:href="#id15" x1="7482.63" y1="5258.94" x2="11718.3" y2="7410.86">
  </linearGradient>
  <linearGradient id="id27" gradientUnits="userSpaceOnUse" xlink:href="#id20" x1="11060" y1="864.118" x2="6860.54" y2="5385.8">
  </linearGradient>
  <linearGradient id="id28" gradientUnits="userSpaceOnUse" xlink:href="#id12" x1="8990.02" y1="5996.65" x2="6193.01" y2="1334.96">
  </linearGradient>
  <linearGradient id="id29" gradientUnits="userSpaceOnUse" xlink:href="#id15" x1="8826.24" y1="-322.776" x2="2868.2" y2="8563.06">
  </linearGradient>
 </defs>
 <g id="Layer_x0020_1">
  <metadata id="CorelCorpID_0Corel-Layer"/>
  <polygon class="fil0" points="0,8250 11694,8250 11694,-10 0,-10 "/>
  <path class="fil1" d="M5973 6683c6,-465 -99,-940 -251,-1378 -36,-103 -95,-175 -150,-267 -36,-59 -73,-120 -118,-172 -99,-114 -241,-236 -366,-319 -134,-89 -293,-150 -454,-130 -93,12 -305,74 -334,196 -75,-17 -161,14 -197,85 -117,-55 -228,-42 -346,16 -97,48 -144,128 -147,235 -2,77 16,77 -45,115 -37,23 -74,29 -105,63 -56,60 -71,145 -64,225 2,23 44,223 76,216 -138,29 -243,175 -167,292 -341,-54 -431,85 -508,210 -107,-74 -406,-49 -480,90 -155,-225 -584,-216 -730,-49 -202,-146 -529,125 -432,334 -218,117 -257,285 -226,456 -60,17 -58,16 -81,67 -131,-186 -246,-313 -490,-328 -109,-7 -245,9 -358,59l0 1552 5713 0c70,-103 127,-210 164,-317 126,-369 91,-866 96,-1250z"/>
  <path class="fil2" d="M5190 5051c-185,-222 -544,-569 -844,-295 -49,-21 -103,-26 -151,-4 -22,10 -37,18 -56,41 -19,-13 -66,-18 -85,-20 -63,-6 -131,28 -156,88 -11,26 -4,66 -1,98 -40,8 -56,22 -93,32 -146,39 -241,177 -262,322 -28,194 119,273 137,432 -123,-2 -284,84 -304,210l-17 -34c-36,-58 -173,-28 -224,-7 -68,28 -136,93 -142,169 -33,-1 -68,-15 -98,10 -20,17 -35,66 -6,80 -102,-58 -211,-111 -331,-72 -69,22 -235,84 -223,179 -71,-119 -242,-183 -376,-183 -69,0 -137,11 -200,40 -27,12 -116,43 -109,75 -56,-70 -221,-78 -292,-37 -58,34 -164,187 -88,248 -175,41 -263,408 -168,548 -83,-25 -239,24 -242,131 -69,-169 -203,-268 -372,-342 -214,-93 -374,-74 -487,17l0 1447c7,8 15,15 22,22l2340 0c224,-23 442,-63 642,-139 901,-340 2105,-770 2486,-1750 183,-472 12,-932 -300,-1307z"/>
  <path class="fil3" d="M11694 1410c-28,-11 -58,-16 -91,-15 -11,-76 -88,-128 -156,-148 -36,-11 -78,-17 -115,-8 -35,8 -62,34 -94,31 -35,-3 -55,-33 -99,-26 -36,6 -70,28 -96,52 -27,26 -50,60 -59,97 -2,7 -9,96 3,93 -35,10 -78,12 -107,38 -12,11 -59,87 -33,101 -45,-24 -62,-22 -97,14 -71,-155 -372,-79 -301,93 -46,17 -60,42 -63,90 -30,3 -57,-14 -88,-4 66,-19 103,-106 25,-141 28,-61 48,-130 20,-195 -10,-24 -33,-42 -37,-68 -5,-30 17,-63 17,-95 1,-157 -196,-200 -319,-170 11,-88 -145,-139 -208,-139 -96,-1 -219,11 -262,109 -81,-68 -260,27 -288,120 -5,17 1,62 -10,76 -15,19 -71,28 -94,35 -71,22 -144,39 -208,76 -43,25 -35,65 -72,94 -20,16 -39,15 -64,20 -49,9 -91,19 -133,49 -56,39 -119,99 -143,156 -32,74 -21,269 -77,313 -22,17 -110,4 -140,10 -55,11 -106,29 -152,64 -123,92 -132,247 -228,349 -114,-104 -235,-62 -365,-53 -77,5 -61,-25 -134,-74 -45,-30 -88,-40 -142,-40 -114,1 -265,5 -319,121 -46,96 -16,215 75,266 -67,93 -75,215 24,287 -147,42 -60,190 -17,270 -40,5 -71,36 -91,67 -87,-161 -320,-118 -409,18 -18,28 -12,56 -39,77 -21,16 -77,5 -104,19 -66,33 -92,87 -94,160 -305,-19 -502,349 -493,614 13,368 342,576 645,700 291,120 570,244 879,312 390,87 783,145 1181,180 582,51 1186,111 1770,95 333,-9 680,-116 980,-258 238,-113 354,-336 421,-583l0 -3248z"/>
  <path class="fil4" d="M11694 1636c-38,-11 -42,-12 -71,-73 -35,-75 -40,-138 -121,-184 -86,-49 -161,-10 -245,-27 -75,-15 -146,-38 -205,35 -39,48 -5,107 -6,157 -86,-34 -225,13 -182,127 -36,-20 -102,-37 -115,21 -40,-64 -137,-116 -212,-84 -91,39 -42,104 -53,178 -57,1 -76,50 -90,94 -37,-43 -103,-47 -159,-46 88,-41 66,-119 12,-174 56,-12 84,-92 34,-129 40,-52 -1,-143 -72,-132 51,-56 33,-138 -28,-178 -46,-30 -190,-60 -228,-10 89,-147 -397,-227 -406,-38 -45,-46 -152,-28 -198,10 -57,46 -79,121 -82,190 -120,7 -322,42 -353,187 -73,-3 -151,20 -217,52 -194,95 -165,409 -164,613 0,24 0,47 -1,67 -220,-67 -421,91 -511,283 -83,-82 -415,-107 -515,-47 -59,-186 -396,-271 -466,-56 -12,36 -17,94 -9,132 10,50 66,100 65,142 -2,40 -55,91 -55,149 0,54 4,108 47,141 -103,48 11,226 74,265 -98,-23 -199,-13 -207,112 -53,-84 -92,-156 -206,-139 -44,7 -81,18 -114,47 -38,34 -37,93 -67,121 -29,26 -82,17 -112,47 -36,36 -19,78 -37,116 -38,79 -165,124 -180,227 -11,76 44,171 77,238 199,404 677,516 1068,672 599,238 1259,412 1903,454 484,31 975,36 1460,54 309,12 717,-79 907,-342 15,-21 29,-42 42,-65l0 -3210z"/>
  <path class="fil5" d="M5128 5510c44,-163 32,-478 -131,-596 -111,-80 -380,-5 -347,151 -128,-249 -499,-176 -579,27 -165,-93 -393,-19 -432,168 -77,377 406,561 684,636 372,99 699,2 804,-386z"/>
  <path class="fil6" d="M8636 2953c5,0 10,0 15,-1 26,-176 163,-300 317,-369 63,-28 106,-22 155,-72 43,-43 26,-113 87,-154 49,-33 146,-56 195,-13 -14,-74 -16,-170 20,-239 46,-88 136,-89 222,-93 -7,-73 -57,-125 -29,-204 23,-64 82,-102 148,-77 -13,-15 -37,-41 -29,-65 9,-25 43,-32 63,-17 -6,-65 67,-98 119,-114 57,-18 85,8 99,63 20,-84 170,15 182,73 17,83 -43,187 -105,238 46,-21 121,0 152,38 48,58 0,126 -41,170 37,-25 93,20 104,56 14,46 -20,115 -58,137 90,12 127,107 144,184 54,236 0,485 -19,723 -23,296 -78,591 -173,873 -168,501 -319,1138 -885,1309 -940,284 -1899,416 -2889,416 -595,0 -1363,-5 -1640,-643 -43,-98 -59,-214 -25,-317 17,-52 96,-145 108,-161 -5,-22 -6,-36 -6,-53 -1,-34 -6,-84 24,-124 61,-79 119,-85 185,-105 -13,-56 10,-91 60,-130 53,-41 151,-12 151,4 -7,-173 170,-280 322,-128 73,-115 230,-51 332,-40 -127,-379 374,-510 638,-430 92,-318 568,-336 711,-31 -24,-143 69,-227 183,-287 138,-72 356,-26 441,-97 44,-37 59,-120 112,-164 60,-51 159,-101 233,-126 121,-40 250,-26 375,-32z"/>
  <path class="fil7" d="M6791 4500c282,136 851,130 878,-288 12,-178 -150,-303 -296,-385 -55,-31 -138,-82 -205,-60 -26,9 -131,123 -102,129 -166,-36 -359,-44 -498,86 -197,185 39,429 221,518z"/>
  <path class="fil8" d="M8139 4691c344,-83 681,-426 648,-798 -28,-318 -563,-412 -828,-411 -128,1 -582,124 -380,332 -128,-22 -308,132 -251,267 -219,-39 -368,227 -274,413 145,286 828,259 1085,197z"/>
  <path class="fil9" d="M5135 5579c-33,-142 -47,-347 -209,-401 -130,-44 -274,40 -319,164 -112,-194 -480,-284 -676,-150 -35,24 -49,79 -81,96 -25,14 -62,0 -87,13 -72,38 -128,68 -178,139 -83,119 -70,234 10,347 -613,522 930,912 1335,595 226,-177 263,-546 204,-803z"/>
  <path class="fil10" d="M9184 2967c-66,-45 -118,-68 -118,-160 0,-64 33,-126 73,-174 75,-92 215,-175 334,-124 62,26 121,75 157,131 17,26 30,47 44,69 21,32 29,49 33,88 54,-39 122,-61 188,-58 -34,-70 -99,-114 -117,-193 -16,-70 1,-179 88,-183 -16,-42 -77,-61 -88,-118 -13,-74 38,-91 83,-127 64,-52 137,-157 201,-20 68,13 117,71 94,141 159,8 214,303 206,420 -14,195 -170,288 -349,339 -128,36 -269,49 -400,73 -103,19 -209,49 -303,-8 -46,-27 -81,-66 -125,-95z"/>
  <path class="fil11" d="M5108 6674c262,-213 308,-775 256,-1078 -27,-156 -125,-308 -319,-315 -150,-6 -333,165 -270,325 -61,-77 -169,-63 -235,10 48,-276 -282,-361 -485,-305 -225,62 -497,318 -210,501 -92,3 -182,78 -232,156 -117,180 -25,331 105,476 292,324 1010,538 1390,229z"/>
  <path class="fil12" d="M11694 1996c-75,-3 -150,13 -169,60 -8,-16 -16,-32 -24,-48 -54,-101 -117,-181 -239,-205 -65,-13 -120,-16 -174,30 -17,15 -101,133 -70,155 -30,-21 -90,-21 -126,-21 -61,0 -60,37 -102,56 -23,10 -57,-3 -82,5 -30,10 -57,37 -72,63 -25,42 -45,104 -29,152 -47,-47 -127,-70 -193,-67 -64,3 -65,36 -67,93 -51,-9 -111,2 -107,68 -53,-57 -188,-71 -246,-12 -22,22 -39,58 -38,89 1,35 34,57 38,89 -87,3 -148,82 -104,166 -33,-18 -102,25 -112,63 9,-69 -130,-184 -192,-123 -3,-41 -89,-36 -116,-23 -45,21 -43,56 -33,96 -46,-4 -101,24 -115,67 -78,-52 -228,0 -309,23 -121,35 -220,109 -270,226 -42,97 -41,195 -50,297 -7,83 -10,168 -13,252 -3,80 -10,215 52,277 54,54 141,32 207,21 143,-25 283,-50 427,-63 178,-16 353,-3 531,2 171,5 351,-1 520,26 239,39 466,21 706,-5 159,-17 281,-43 315,-223 17,-90 -15,-214 41,-281 45,-53 108,-96 156,-148 22,-24 42,-48 62,-72l0 -1085z"/>
  <path class="fil13" d="M11694 2058c-101,4 -192,43 -233,131 -37,-97 -164,-150 -265,-156 -73,-4 -149,17 -203,67 -45,43 -17,38 -88,25 -48,-9 -89,-6 -130,24 -74,55 -46,112 -49,187 -48,-38 -102,-8 -102,47 -37,-73 -129,-89 -207,-69 -79,21 -116,74 -124,149 -35,-60 -191,1 -130,85 -28,-24 -74,-11 -97,19 -33,44 -7,85 17,122 -37,-1 -109,15 -124,56 -14,38 29,66 30,102 -42,-11 -189,-49 -205,21 -58,-30 -104,-77 -179,-85 -48,-5 -107,1 -139,38 45,-53 -147,-28 -143,-28 -33,3 -37,61 -71,64 -28,3 -48,-43 -77,-43 -59,0 -124,6 -175,29 -56,26 -95,75 -87,164 -200,-23 -326,169 -277,347 -143,-7 -396,49 -375,236 -160,9 -388,234 -225,377 -176,44 -291,214 -191,372 -130,-1 -591,-335 -682,-96 -127,-162 -857,-349 -832,14 -116,-60 -257,-19 -261,122 -91,-129 -338,-65 -449,5 -195,123 -136,247 -111,431 12,85 -11,107 -28,191 -21,109 15,88 42,173 16,51 35,15 32,80 -1,20 -64,81 -74,111 -22,67 -33,187 43,211 -45,130 104,260 210,331 164,112 392,150 584,181 431,69 870,118 1304,167 1365,153 2994,-107 3763,-1365 105,-172 220,-356 308,-537l0 -2300z"/>
  <path class="fil14" d="M8408 3520c91,-89 167,-161 340,-164 -6,-127 77,-283 214,-300 65,-8 131,60 181,48 23,-5 62,-74 87,-90 122,-79 437,-129 461,84 53,-80 206,-43 280,-22 120,35 207,105 289,199 158,182 143,449 98,669 -48,235 25,499 -76,721 -195,427 -717,810 -1125,1000 -727,338 -1556,467 -2350,404 -217,-17 -1177,67 -1114,-332 -140,-8 -152,-153 -134,-266 5,-31 47,-62 50,-86 3,-26 -25,-49 -22,-66 11,-63 -10,-100 40,-153 -100,-86 6,-183 -14,-279 -21,-100 -108,-113 -70,-250 35,-125 108,-200 233,-222 166,-28 286,73 432,81 28,1 137,-135 225,-134 41,1 111,46 144,39 60,-13 41,-56 90,-83 163,-88 360,-62 502,71 165,-119 468,30 461,230 71,-112 250,-282 399,-262 -91,-145 26,-410 204,-413 -53,1 -54,-155 -49,-184 20,-110 76,-100 141,-158 31,-28 59,-55 85,-81z"/>
  <path class="fil15" d="M6597 5635c373,144 863,38 1136,-257 259,-281 158,-902 -240,-1032 -86,-28 -177,-28 -262,5 -27,10 -239,174 -216,186 -134,-69 -286,-20 -336,125 -147,-106 -332,-111 -467,11 -243,-365 -730,217 -393,432 -111,32 -149,168 -74,251 -197,93 -76,308 85,339 116,23 246,23 355,-31 186,-91 214,-105 413,-28z"/>
  <path class="fil16" d="M6025 6553c308,-511 -107,-1453 -761,-1099 -167,90 -234,239 -274,403 -87,-235 -387,4 -445,125 -93,-188 -672,5 -754,136 -181,289 28,560 319,629 342,81 700,128 1053,111 293,-14 694,-27 862,-305z"/>
  <path class="fil12" d="M11694 3659c-57,-1 -117,9 -179,29 -62,20 -83,42 -141,15 -50,-23 -67,-36 -124,-34 -38,1 -79,10 -117,5 -5,-75 -131,-136 -161,-47 -72,-36 -240,-83 -252,49 -13,-55 -94,-77 -152,-78 1,-29 -4,-66 -36,-71 37,-35 53,-144 -16,-163 5,-85 -48,-170 -138,-195 -54,-15 -115,-7 -168,6 -14,4 -41,16 -55,16 -15,1 -25,-18 -41,-17 -270,13 -257,461 -253,648 2,104 46,214 113,293 73,85 119,151 169,254 129,263 467,372 730,441 264,70 556,182 822,115l0 -1267z"/>
  <path class="fil17" d="M11694 3686c-17,6 -34,15 -47,24 -17,11 -102,99 -87,122 -49,-75 -206,-90 -264,-17 -59,-76 -186,-89 -258,-22 -8,-65 -76,-120 -137,-136 -34,-9 -69,-9 -94,19 -24,27 -5,64 -40,76 -13,-50 -81,-92 -119,-36 48,-89 -79,-85 -133,-69 38,-45 23,-141 -52,-122 98,-42 47,-123 -38,-125 46,-201 -306,-236 -419,-117 -58,61 -62,148 -40,224 11,36 41,75 36,111 -8,53 -67,111 -84,165 -73,228 71,393 266,494 246,127 502,222 765,306 219,70 521,178 743,63l0 -958z"/>
  <path class="fil18" d="M9060 4530c-169,-37 -390,-137 -442,-319 -28,-98 14,-201 56,-289 43,-89 100,-211 167,-285 64,-71 179,-159 269,-77 38,-113 242,-118 258,13 36,-25 118,-82 136,0 20,-64 148,-198 211,-95 42,-25 136,-60 152,8 55,-55 194,-51 207,40 95,-38 195,0 188,117 71,-8 125,67 151,124 56,124 34,274 -45,383 -133,183 -347,276 -560,328 -242,60 -500,105 -748,50z"/>
  <path class="fil19" d="M11369 4226c-19,-74 26,-140 6,-211 -14,-51 -56,-96 -114,-95 -44,1 -76,38 -117,41 -18,-43 -59,-82 -94,-23 -60,-54 -147,-100 -230,-81 -51,12 -96,64 -147,63 -11,-156 -169,-147 -283,-135 7,-107 -125,3 -169,-65 -22,-34 5,-81 -13,-116 -31,-60 -81,-22 -130,-24 16,-102 -167,-38 -201,-1 17,-93 -144,-94 -154,-10 -22,-36 -81,-27 -105,6 -30,43 19,74 5,112 -9,25 -65,30 -68,76 -3,37 26,80 67,70 -11,74 -66,104 -139,106 -40,1 -178,-37 -105,-94 43,-34 83,23 99,-65 10,-54 -13,-101 -74,-88 47,-93 -49,-92 -107,-84 -7,-99 -109,12 -125,45 -164,-214 -393,48 -390,248 0,19 3,38 8,56 -325,-95 -889,230 -601,586 -105,-65 -265,-35 -329,77 18,-114 -93,-156 -180,-173 -171,-33 -210,40 -316,136 -87,79 -179,67 -239,184 -43,84 -65,224 -16,310 -94,-48 -212,-27 -252,74 -3,-139 -155,-231 -288,-153 -104,-147 -428,-99 -511,43 -24,41 -1,85 -16,126 -17,45 -57,69 -73,122 -22,71 -30,187 44,222 -213,1 -258,375 -116,489 -113,36 -217,117 -217,252 -72,-184 -361,-108 -413,-3 0,-109 -102,-216 -127,-233 -129,-88 -324,-81 -461,-21 -61,27 -122,65 -173,108 -87,71 -130,184 -108,291 -11,-68 -133,-82 -186,-85 -86,-5 -153,20 -209,86 5,-184 -312,-282 -454,-258 -90,15 -180,89 -213,176 -24,62 4,125 15,181 -27,-14 -98,5 -124,19 -48,26 -46,74 -64,115 -11,-66 -217,-35 -247,12 3,-50 -68,-118 -104,-145 -67,-51 -158,-60 -240,-56 -118,6 -223,126 -215,248 -47,-64 -177,-91 -251,-97 -106,-9 -212,10 -310,51 -186,77 -301,364 -161,539 -113,11 -173,94 -206,196 -414,0 -486,305 -483,524 -118,-157 -406,-273 -553,-93 -28,-155 -273,-120 -392,-87l0 532 11694 0 0 -3976c-95,-92 -220,-159 -326,-48z"/>
  <path class="fil20" d="M11694 4906c-84,-22 -173,-28 -255,-20 -92,9 -173,31 -258,68 -80,34 -183,52 -275,212 -41,-12 -91,-2 -128,19 -17,9 -41,42 -55,46 -19,6 -39,-9 -60,-14 -141,-35 -316,5 -376,152 -16,39 0,65 -2,104 -53,-11 -161,13 -174,73 -51,-67 -104,-115 -189,-132 -55,-11 -112,-19 -168,-15 -48,3 17,7 -36,21 -19,-53 -133,-62 -146,-81 -16,-26 -37,-49 -59,-70 -41,-38 -90,-70 -142,-93 -174,-79 -338,-100 -524,-75 -171,23 -348,143 -427,292 -48,90 -63,222 -23,309 2,2 -139,-40 -205,85 -30,57 -8,130 21,177 -46,-21 -122,-3 -169,4 -58,8 -114,31 -158,74 -42,41 -74,109 -83,165 -10,60 19,111 17,170 0,-9 -43,21 -85,100 -27,50 -52,23 -99,53 -83,53 -115,155 -120,250 -10,172 124,387 295,434 155,42 312,-46 469,9 76,27 171,85 243,125 162,90 280,112 474,105 185,-7 250,45 422,101 176,58 343,-16 511,57 231,101 320,135 584,94 201,-32 333,47 527,68 186,21 443,8 652,-68l0 -2798z"/>
  <path class="fil21" d="M11694 7371c-76,-45 -162,-29 -250,-77 -86,-47 -15,-74 -71,-129 -56,-54 -197,-71 -275,-71 -57,-181 -343,-189 -387,12 -42,-158 -239,1 -310,55 -5,-110 -147,-169 -244,-121 -153,75 -3,83 -8,196 -6,142 -295,265 -412,201 -83,-46 -33,-133 -127,-181 -69,-35 -208,-36 -246,45 -15,-90 -152,-112 -221,-91 21,-114 -9,-241 -122,-313 -82,-53 -211,-42 -304,-10 54,-208 -273,-368 -437,-295 -183,81 -244,221 -206,369 -15,-57 -125,-76 -171,-72 -43,4 -65,28 -101,42 -61,24 -28,24 -98,18 -201,-16 -323,-41 -461,97 -33,33 -48,84 -62,130 -95,-33 -207,8 -242,39 -47,42 -89,130 -89,230 -77,-50 -200,-51 -268,48 -109,-218 -355,-125 -419,-50 -129,-114 -484,-122 -551,80 -223,-18 -287,214 -229,345 -234,-139 -389,-52 -470,29 -145,-40 -145,-40 -209,-39 -49,1 -106,39 -153,29 -143,-31 -295,-30 -451,136 -54,57 -95,139 -108,224l7699 0 0 -879z"/>
  <path class="fil22" d="M4729 3684c-23,16 -41,36 -57,58 -17,23 -25,47 -35,73 -5,14 -9,28 -14,42 -4,11 -11,25 -11,36 -5,-40 3,-81 14,-120 9,-34 16,-72 28,-105 14,-36 52,-41 61,-37 -1,-4 -2,-7 -3,-10 -4,-6 -6,-7 -13,-10 -2,-1 -5,-3 -8,-3 2,-1 8,-3 9,-4 4,-2 6,-5 10,-6 4,-1 9,-2 13,0 4,1 8,3 11,6 3,2 6,8 10,8 10,2 8,-10 10,-16 2,-8 6,-16 12,-21 14,-11 32,-16 48,-21 51,-16 108,-12 160,-9 13,1 26,1 39,3 6,1 23,3 27,9 -2,0 -3,2 -4,3 -2,1 -5,1 -8,1 -9,0 -17,-1 -25,-1 -23,2 -47,5 -70,11 -26,6 -55,16 -78,32 -16,11 -32,23 -47,35 -7,5 -12,17 -5,24 8,8 17,15 25,23 9,10 20,20 28,31 7,9 15,18 21,27 -4,0 -9,-1 -12,-3 0,4 1,9 3,12 -12,-11 -21,-23 -34,-32 -8,-6 -16,-11 -24,-16 -14,-8 -27,-19 -42,-26 -14,-7 -27,-2 -40,7z"/>
  <path class="fil23" d="M5920 3443c-12,20 -19,42 -24,66 -5,24 -3,45 -1,69 1,13 3,25 4,38 1,10 0,23 4,32 -18,-29 -26,-64 -32,-98 -5,-30 -13,-62 -15,-91 -2,-33 26,-50 34,-50 -2,-3 -4,-5 -6,-6 -5,-3 -7,-3 -13,-3 -2,0 -5,0 -8,0 1,-2 5,-5 6,-6 2,-3 3,-6 6,-8 3,-2 7,-4 10,-5 3,0 7,0 11,1 3,1 7,4 11,3 6,-2 4,-9 3,-13 -1,-4 -2,-8 -1,-12 2,-5 7,-9 11,-13 17,-19 38,-33 59,-48 72,-48 156,-62 240,-71 -48,4 -94,33 -134,58 -42,26 -101,64 -120,112 31,8 62,26 92,36 -3,4 -5,9 -7,13 -9,-7 -23,-7 -33,-9 -14,-3 -28,-6 -43,-8 -26,-4 -38,-9 -53,16z"/>
  <path class="fil24" d="M1399 4713c6,16 15,30 26,43 11,13 24,22 39,32 7,5 16,10 23,15 6,4 13,10 20,12 -25,-3 -48,-14 -69,-26 -19,-10 -41,-20 -58,-32 -20,-14 -17,-37 -13,-42 -3,0 -5,0 -6,1 -4,1 -5,3 -8,6 -1,1 -2,3 -3,4 0,-1 0,-5 -1,-6 -1,-3 -2,-4 -2,-7 0,-3 0,-6 2,-8 1,-2 3,-4 5,-6 2,-2 5,-2 6,-5 2,-4 -3,-6 -6,-8 -3,-1 -5,-2 -7,-5 -2,-3 -2,-8 -2,-12 -3,-18 -2,-36 0,-54 5,-62 35,-116 67,-167 -19,29 -24,67 -28,101 -4,35 -9,86 9,117 19,-14 42,-23 61,-36 1,3 3,7 4,10 -8,2 -14,10 -20,15 -8,7 -16,13 -24,20 -14,13 -22,17 -15,37z"/>
  <path class="fil25" d="M2295 2167c-15,7 -27,18 -38,30 -12,12 -18,26 -26,41 -4,8 -8,16 -11,24 -3,6 -8,14 -9,20 0,-24 8,-47 17,-70 8,-19 15,-41 24,-59 11,-20 34,-20 38,-17 0,-3 -1,-4 -1,-6 -2,-4 -3,-4 -7,-7 -1,-1 -3,-2 -5,-3 1,-1 5,-1 6,-1 2,-1 4,-2 6,-3 2,0 6,0 8,1 2,1 4,3 6,4 2,2 3,5 5,6 4,1 6,-4 7,-7 1,-3 2,-6 4,-7 3,-2 7,-3 11,-3 17,-5 34,-6 52,-7 60,-2 115,20 167,45 -30,-15 -67,-15 -100,-15 -34,0 -83,1 -111,22 15,16 27,38 42,55 -3,1 -6,3 -9,5 -3,-7 -11,-12 -16,-17 -7,-7 -14,-14 -22,-20 -14,-12 -19,-19 -37,-10z"/>
  <path class="fil26" d="M3550 2974c-19,11 -34,26 -49,45 -15,19 -24,40 -34,64 -5,12 -9,26 -13,38 -3,10 -9,22 -10,33 -2,-38 8,-75 21,-110 11,-30 22,-64 37,-92 17,-31 44,-29 49,-24 1,-4 0,-6 0,-9 -1,-6 -3,-7 -6,-10 -1,-1 -3,-3 -5,-4 2,-1 6,-1 7,-2 3,-1 5,-3 8,-4 3,0 7,0 9,2 2,2 4,4 6,7 1,3 2,7 5,9 5,2 8,-5 9,-9 2,-4 3,-8 6,-10 4,-3 9,-3 14,-4 21,-5 42,-4 63,-2 70,6 128,46 184,83 -31,-22 -75,-29 -113,-33 -40,-5 -98,-10 -135,19 15,24 26,54 41,78 -4,1 -8,4 -11,7 -2,-10 -12,-17 -18,-24 -8,-10 -15,-20 -23,-29 -15,-18 -19,-28 -42,-15z"/>
  <path class="fil27" d="M4509 4237c-9,19 -13,39 -15,61 -2,22 2,43 5,66 2,12 5,24 7,36 2,9 2,22 7,30 -19,-29 -29,-62 -37,-95 -7,-28 -18,-59 -22,-88 -5,-32 18,-46 25,-46 -2,-3 -4,-5 -6,-6 -5,-3 -7,-3 -12,-4 -2,0 -5,0 -7,0 1,-2 4,-4 5,-5 2,-3 2,-5 4,-7 2,-2 5,-4 8,-4 3,0 6,0 9,1 3,1 7,4 10,3 5,-1 3,-8 2,-12 -1,-4 -3,-8 -2,-11 1,-5 6,-8 8,-11 14,-17 30,-29 47,-42 58,-41 131,-49 203,-53 -41,1 -79,25 -112,47 -34,22 -83,54 -94,99 28,10 56,28 84,39 -2,3 -4,8 -5,11 -8,-7 -21,-8 -30,-10 -13,-4 -25,-7 -38,-11 -24,-6 -34,-11 -45,12z"/>
  <path class="fil28" d="M2532 4070c0,-5 5,-12 4,-17 -1,-5 -7,-5 -10,-6 -5,-2 -11,-4 -17,-4 6,-4 8,-16 15,-17 11,-2 16,14 22,-2 3,-8 0,-19 1,-28 2,-19 15,-31 28,-43 23,-21 44,-31 71,-45 28,-14 67,-32 105,-32 0,0 -1,0 -1,1 0,0 0,-1 1,-1 -26,7 -44,17 -67,31 -23,15 -45,32 -66,49 -25,21 -55,77 -22,104 14,11 28,13 44,23 4,3 15,6 20,8 -2,1 -5,3 -8,4 1,3 6,8 8,10 -23,-11 -45,-18 -54,-21 -7,-3 -16,-6 -22,2 -6,8 -4,22 -4,33 0,14 1,28 3,41 3,26 10,52 17,77 9,29 21,58 28,86 -44,-62 -105,-156 -97,-250z"/>
  <path class="fil29" d="M3695 4338c0,-5 6,-11 4,-15 -2,-4 -8,-4 -12,-5 -7,-1 -13,-4 -21,-3 7,-3 10,-14 19,-16 7,-1 16,8 22,4 1,-5 0,-10 0,-15 0,-7 3,-14 7,-19 5,-7 11,-13 16,-20 9,-11 18,-18 31,-26 15,-8 31,-15 47,-21 32,-11 67,-17 101,-16 0,2 -1,5 -1,7 -9,4 -19,7 -29,11 -27,10 -54,20 -78,37 -19,14 -39,36 -36,61 1,12 9,18 19,25 17,12 37,11 55,19 5,2 10,5 15,6 -3,1 -6,3 -9,3 1,3 7,7 10,9 -11,0 -23,-3 -34,-6 -11,-3 -22,-4 -33,-7 -8,-2 -18,-10 -25,-2 -7,7 -5,20 -5,29 0,12 2,25 4,37 5,23 13,46 22,68 11,26 26,51 36,76 -55,-54 -131,-136 -122,-221z"/>
  <path class="fil30" d="M5075 4095c3,-4 12,-6 12,-11 1,-5 -5,-9 -8,-11 -5,-5 -10,-11 -17,-15 9,1 17,-7 26,-4 7,3 10,16 17,16 3,-4 5,-9 8,-13 4,-6 10,-11 17,-14 8,-4 17,-6 26,-8 15,-5 26,-6 42,-6 18,1 36,4 54,8 36,8 70,23 101,43 -1,1 -4,4 -5,6 -11,-2 -21,-4 -32,-7 -30,-6 -60,-13 -91,-11 -25,2 -56,10 -68,34 -6,12 -2,22 3,33 9,20 27,31 38,48 3,5 6,10 10,14 -3,0 -7,-1 -10,-2 -1,3 3,10 4,14 -10,-6 -19,-16 -27,-25 -8,-9 -18,-16 -26,-25 -6,-7 -11,-19 -22,-17 -10,2 -16,15 -21,23 -7,11 -13,23 -17,35 -9,24 -15,49 -19,74 -5,29 -5,61 -11,89 -19,-80 -40,-198 15,-269z"/>
  <path class="fil31" d="M2685 5613c-6,3 -11,6 -14,4 -7,-3 -9,-28 -12,-35 -2,-5 -8,-13 -9,-18 -1,-7 2,-10 7,-17 11,-16 24,-30 36,-45 6,-8 12,-17 18,-26 2,-3 9,-9 9,-12 0,-1 -1,-8 -2,-8 -19,13 -34,34 -52,49 -11,9 -21,18 -30,29 -10,11 -10,12 -24,11 -27,-2 -46,13 -69,23 22,-55 75,-115 89,-136 -16,9 -36,25 -49,40 -16,17 -30,30 -44,49 -14,20 -29,39 -41,61 -6,11 -19,34 -8,46 8,9 26,3 37,5 25,4 7,24 1,37 -9,21 1,35 0,54 10,-16 28,-19 36,-38 2,-6 2,-24 9,-27 18,-6 14,7 18,13 10,15 22,14 38,7 47,-21 92,-51 125,-91 15,-18 28,-37 42,-56 0,0 -14,8 -17,9 -6,3 -69,59 -95,72z"/>
 </g>
</svg>
